PathFileType	4	(X/Y/Z)	Patient4_TMGait_0pt5_02_right_39.trc.trc
DataRate	CameraRate	NumFrames	NumMarkers	Units	OrigDataRate	OrigDataStartFrame	OrigNumFrames
76.923076923077	76.923076923077	4	33	mm	76.923076923077	71	       141
Frame#	Time	Sacral			L.Shoulder			Chest			R.Shoulder			Neck			R.ASIS			L.ASIS			R.Thigh.Superior			R.Thigh.Lateral			R.Thigh.Inferior			R.Patella			L.Thigh.Superior			L.Thigh.Lateral			L.Thigh.Inferior			L.Patella			L.Shank.Superior			L.Shank.Lateral			L.Shank.Inferior			R.Shank.Superior			R.Shank.Lateral			R.Shank.Inferior			R.Heel			R.Midfoot.Superior			R.Midfoot.Lateral			R.Toe			L.Heel			L.Midfoot.Lateral			L.Midfoot.Superior			L.Toe			L.Elbow			L.Wrist			R.Elbow			R.Wrist			
		X1	Y1	Z1	X2	Y2	Z2	X3	Y3	Z3	X4	Y4	Z4	X5	Y5	Z5	X6	Y6	Z6	X7	Y7	Z7	X8	Y8	Z8	X9	Y9	Z9	X10	Y10	Z10	X11	Y11	Z11	X12	Y12	Z12	X13	Y13	Z13	X14	Y14	Z14	X15	Y15	Z15	X16	Y16	Z16	X17	Y17	Z17	X18	Y18	Z18	X19	Y19	Z19	X20	Y20	Z20	X21	Y21	Z21	X22	Y22	Z22	X23	Y23	Z23	X24	Y24	Z24	X25	Y25	Z25	X26	Y26	Z26	X27	Y27	Z27	X28	Y28	Z28	X29	Y29	Z29	X30	Y30	Z30	X31	Y31	Z31	X32	Y32	Z32	X33	Y33	Z33	

71	51.870000000000	725.451158398061	1003.351083744409	509.223856190786	885.858931018096	1425.440863296141	308.524566454221	1007.329464862540	1354.121452279194	454.343544741713	947.734191001766	1430.106179331724	636.828361999730	905.117235283627	1485.480507177681	458.162832901710	958.857647866195	931.592104337354	603.804682073737	922.554876982403	950.080480828828	331.609815941725	960.029046775432	718.400787519003	574.367108776389	862.525599042331	623.304900476131	641.319326995457	917.801119128036	558.843830091631	555.996094826082	898.321307146729	471.409727515355	559.806268424849	999.058125673868	767.134619602320	364.474907188549	943.826694112305	636.789875197429	295.473817313348	1047.674169795360	578.855221210397	355.831023715283	1069.375696627474	510.316678124238	357.690857889279	1051.456471147610	436.394012364017	348.057910113453	979.414210854265	309.625479527691	298.425142122194	1058.747813065902	207.442957492329	357.628484877026	857.338372159856	387.823730457669	569.684673447572	773.991423563607	296.838800258159	636.238074189844	793.020296087402	197.570319375830	571.262230909830	635.367328354015	44.026572338039	547.928167046838	807.552470437147	96.004692795830	579.535686848438	719.307280886247	36.632277172541	621.582223267205	927.533244173206	41.027523674900	608.676354197280	962.407580980556	38.707588079696	398.016883925082	1036.012704673930	38.304501626776	317.215398915610	1113.567911710954	106.289803184960	339.960097120016	1243.960185000776	64.559218265237	312.975601145322	747.099046661315	1096.701499243765	214.930749682322	712.271043653168	839.129821661912	236.470472098513	1117.568044633112	1149.322823934923	750.182159865724	1309.614293429497	1275.926734825723	653.558957164517	
72	51.883000000000	726.857306232061	1002.145490052477	507.158973157817	885.177160295200	1424.176034427611	305.788342346082	1007.322083345196	1353.615352236886	451.450421099085	947.855716703497	1429.603571299638	633.996774477918	904.723144410998	1484.631213035678	455.200831228615	960.672669806974	930.638672290803	601.826622841215	924.219210928169	948.994563319843	329.694696122300	960.991258402859	717.134720496129	572.743219045086	862.827826542522	622.388917254281	639.683645588353	917.749410635350	557.472036815645	554.481028879809	897.642350855910	469.526029684478	558.315040363306	1001.226107224142	765.664609986182	362.969313216423	944.504496599688	635.359103261792	295.062850156145	1048.441179079772	577.266834932084	355.210258286202	1068.699598111668	507.809228020648	357.869912671799	1050.129103274030	433.686899111103	348.350691025469	976.341458519947	307.963073137369	298.569553907303	1053.251431343294	204.598139992085	358.596857011405	855.310668537112	386.625572767720	568.464300884272	770.931988870184	296.869509671911	635.521602036733	788.290964459908	197.241269923210	570.818285097289	628.954134526478	44.920493246133	548.172408096496	801.367645610672	96.127912282582	579.530096530764	712.944536047454	37.025659933598	621.677317081203	921.142560101545	40.638338840646	608.762200223787	953.075263706589	38.392489794245	398.669840057897	1026.935297703947	36.943315250383	317.952209315583	1106.098877525771	102.780699022814	341.676020102712	1235.961184460920	57.990825796647	314.662614142255	746.222163831333	1095.361615826733	213.531610603871	710.721139987376	837.919584359940	235.176815433102	1119.602440294614	1149.475133724223	746.447991053341	1309.326450882612	1279.081982746855	649.393173473985	
73	51.896000000000	728.227601243190	1001.161047874236	505.000656573893	884.691237912178	1423.062737169158	302.978711694824	1007.423719525285	1353.233656743592	448.552616151945	948.042325986428	1429.301159794057	631.141182896323	904.529478400799	1483.985458029370	452.162548167899	962.325799925851	929.852220819084	599.781158721683	925.842172291194	948.217905157034	327.700688737349	962.004457625482	716.101483460547	571.052154920278	863.298109832877	621.636152332466	637.927947161596	918.039585415671	556.306781927733	552.897849428294	897.464983282864	467.695129941359	556.863312872425	1003.299904438563	764.545134506609	361.667827848573	945.653896212748	634.505051334892	294.298769489014	1049.293101163038	576.085786891032	354.678347069667	1068.252204272613	505.797011470313	357.917217950704	1049.077134983613	431.498841634838	348.430156041860	973.842682193439	306.793073279244	298.224492036811	1048.201266354564	202.305353132437	359.230311578861	853.632921993297	385.569811533511	567.242712631887	768.108425158300	297.161280780546	634.787642625290	783.767669538108	197.155483397768	570.424511172385	622.615949359509	46.303203427260	548.472418598820	795.367727126416	96.370788369607	579.597705619018	706.659299365523	37.687005846273	621.807015254412	914.808921075039	40.180038894764	608.853607990511	944.451018381594	38.181339777472	398.864525386433	1018.597233923318	36.013929408080	318.293879185257	1098.987950419186	100.127178103895	342.990351233382	1228.463668746971	52.937708773016	316.046890668642	746.264689621229	1093.777238851945	212.006106103554	710.334330517491	836.435793792071	233.567970888443	1121.006549720388	1149.163354494125	742.750126985427	1309.092884216840	1280.887909092531	645.376031091283	
74	51.909000000000	729.544203003277	1000.450581434789	502.761908545618	884.401514537845	1422.180615146560	300.135975157633	1007.626253607860	1353.016813096436	445.674635112329	948.310190013102	1429.240695644391	628.283459525591	904.541992189992	1483.594858342414	449.096144885187	963.760749076099	929.303197840883	597.649607591236	927.372214904143	947.806145302789	325.596024835349	963.049667561650	715.371667582979	569.275595348578	863.976125310746	621.086960571647	636.061005121862	918.742370016209	555.398326856953	551.265410023213	897.898544867028	465.952583440387	555.513347639909	1005.215888554582	763.860718045788	360.503754501367	947.153532941995	634.207294774360	293.212449562251	1050.151847663587	575.315535227565	354.158306961248	1067.974023414627	504.292969202968	357.786137661039	1048.225754745387	429.834697265049	348.300959256658	971.806529275691	306.103941701870	297.495086619218	1043.568186787642	200.582352927015	359.566220331427	852.400056370304	384.684699274585	566.054211009281	765.582458961579	297.770008878389	634.046249561932	779.513068109881	197.361509144284	570.096959091121	616.382642435421	48.278179901047	548.822269431196	789.602643678019	96.752557639225	579.752907205450	700.468101057543	38.675585623797	621.968633521315	908.534130044812	39.668715167489	608.940624119472	936.595604990053	38.071408351446	398.740165212186	1011.009171187888	35.475238102335	318.334661098838	1092.254437910309	98.321466042692	343.896243863639	1221.473303858430	49.397080560662	317.056312312055	747.212933344280	1092.049897348930	210.349716210675	711.156122284250	834.765150101098	231.636762897211	1121.760061705479	1148.432831111350	739.092735139029	1308.972436113628	1281.320021799525	641.503214684123	
